<?xml version="1.0" encoding="utf-8"?>
<!-- Generator: Adobe Illustrator 19.1.1, SVG Export Plug-In . SVG Version: 6.00 Build 0)  -->
<svg version="1.1" id="Calque_1" focusable="false" xmlns="http://www.w3.org/2000/svg" xmlns:xlink="http://www.w3.org/1999/xlink"
	 x="0px" y="0px" viewBox="-73 164.9 448 512" style="enable-background:new -73 164.9 448 512;" xml:space="preserve">
<style type="text/css">
	.st0{fill:#DBDBDB;}
</style>
<path class="st0" d="M151,420.9c70.7,0,128-57.3,128-128s-57.3-128-128-128s-128,57.3-128,128S80.3,420.9,151,420.9z M240.6,452.9
	h-16.7c-22.2,10.2-46.9,16-72.9,16s-50.6-5.8-72.9-16H61.4C-12.8,452.9-73,513.1-73,587.3v41.6c0,26.5,21.5,48,48,48h352
	c26.5,0,48-21.5,48-48v-41.6C375,513.1,314.8,452.9,240.6,452.9z"/>
</svg>
